<mxfile host="app.diagrams.net" agent="Mozilla/5.0 (Windows NT 10.0; Win64; x64) AppleWebKit/537.36 (KHTML, like Gecko) Chrome/131.0.0.0 Safari/537.36" version="25.0.3">
  <diagram name="หน้า-1" id="K36vuHmKSKxWBKcsfeLT">
    <mxGraphModel dx="1034" dy="446" grid="1" gridSize="10" guides="1" tooltips="1" connect="1" arrows="1" fold="1" page="1" pageScale="1" pageWidth="827" pageHeight="1169" math="0" shadow="0">
      <root>
        <mxCell id="0" />
        <mxCell id="1" parent="0" />
        <mxCell id="0OGlP7ngL8ONjYJPDU6S-4" value="" style="edgeStyle=orthogonalEdgeStyle;rounded=0;orthogonalLoop=1;jettySize=auto;html=1;" edge="1" parent="1" source="0OGlP7ngL8ONjYJPDU6S-2" target="0OGlP7ngL8ONjYJPDU6S-3">
          <mxGeometry relative="1" as="geometry" />
        </mxCell>
        <mxCell id="0OGlP7ngL8ONjYJPDU6S-2" value="start" style="strokeWidth=2;html=1;shape=mxgraph.flowchart.start_1;whiteSpace=wrap;" vertex="1" parent="1">
          <mxGeometry x="364" y="60" width="100" height="60" as="geometry" />
        </mxCell>
        <mxCell id="0OGlP7ngL8ONjYJPDU6S-6" value="" style="edgeStyle=orthogonalEdgeStyle;rounded=0;orthogonalLoop=1;jettySize=auto;html=1;" edge="1" parent="1" source="0OGlP7ngL8ONjYJPDU6S-3" target="0OGlP7ngL8ONjYJPDU6S-5">
          <mxGeometry relative="1" as="geometry" />
        </mxCell>
        <mxCell id="0OGlP7ngL8ONjYJPDU6S-3" value="สร้างตัวแปร num" style="whiteSpace=wrap;html=1;strokeWidth=2;" vertex="1" parent="1">
          <mxGeometry x="354" y="200" width="120" height="60" as="geometry" />
        </mxCell>
        <mxCell id="0OGlP7ngL8ONjYJPDU6S-8" value="" style="edgeStyle=orthogonalEdgeStyle;rounded=0;orthogonalLoop=1;jettySize=auto;html=1;" edge="1" parent="1" source="0OGlP7ngL8ONjYJPDU6S-5" target="0OGlP7ngL8ONjYJPDU6S-7">
          <mxGeometry relative="1" as="geometry" />
        </mxCell>
        <mxCell id="0OGlP7ngL8ONjYJPDU6S-5" value="แสดงคำว่า input" style="shape=parallelogram;perimeter=parallelogramPerimeter;whiteSpace=wrap;html=1;fixedSize=1;strokeWidth=2;" vertex="1" parent="1">
          <mxGeometry x="354" y="340" width="120" height="60" as="geometry" />
        </mxCell>
        <mxCell id="0OGlP7ngL8ONjYJPDU6S-12" value="" style="edgeStyle=orthogonalEdgeStyle;rounded=0;orthogonalLoop=1;jettySize=auto;html=1;" edge="1" parent="1" source="0OGlP7ngL8ONjYJPDU6S-7" target="0OGlP7ngL8ONjYJPDU6S-11">
          <mxGeometry relative="1" as="geometry" />
        </mxCell>
        <mxCell id="0OGlP7ngL8ONjYJPDU6S-7" value="รับค่าจากผู้ใช้" style="shape=parallelogram;perimeter=parallelogramPerimeter;whiteSpace=wrap;html=1;fixedSize=1;strokeWidth=2;" vertex="1" parent="1">
          <mxGeometry x="354" y="480" width="120" height="60" as="geometry" />
        </mxCell>
        <mxCell id="0OGlP7ngL8ONjYJPDU6S-14" value="" style="edgeStyle=orthogonalEdgeStyle;rounded=0;orthogonalLoop=1;jettySize=auto;html=1;" edge="1" parent="1" source="0OGlP7ngL8ONjYJPDU6S-11" target="0OGlP7ngL8ONjYJPDU6S-13">
          <mxGeometry relative="1" as="geometry" />
        </mxCell>
        <mxCell id="0OGlP7ngL8ONjYJPDU6S-16" value="" style="edgeStyle=orthogonalEdgeStyle;rounded=0;orthogonalLoop=1;jettySize=auto;html=1;" edge="1" parent="1" source="0OGlP7ngL8ONjYJPDU6S-11" target="0OGlP7ngL8ONjYJPDU6S-15">
          <mxGeometry relative="1" as="geometry" />
        </mxCell>
        <mxCell id="0OGlP7ngL8ONjYJPDU6S-11" value="number % 2 = 0 ?" style="rhombus;whiteSpace=wrap;html=1;strokeWidth=2;" vertex="1" parent="1">
          <mxGeometry x="346" y="620" width="136" height="100" as="geometry" />
        </mxCell>
        <mxCell id="0OGlP7ngL8ONjYJPDU6S-20" value="" style="edgeStyle=orthogonalEdgeStyle;rounded=0;orthogonalLoop=1;jettySize=auto;html=1;" edge="1" parent="1" source="0OGlP7ngL8ONjYJPDU6S-13" target="0OGlP7ngL8ONjYJPDU6S-19">
          <mxGeometry relative="1" as="geometry" />
        </mxCell>
        <mxCell id="0OGlP7ngL8ONjYJPDU6S-13" value="แสดง Positive" style="shape=parallelogram;perimeter=parallelogramPerimeter;whiteSpace=wrap;html=1;fixedSize=1;strokeWidth=2;" vertex="1" parent="1">
          <mxGeometry x="354" y="820" width="120" height="60" as="geometry" />
        </mxCell>
        <mxCell id="0OGlP7ngL8ONjYJPDU6S-15" value="แสดง Negative" style="shape=parallelogram;perimeter=parallelogramPerimeter;whiteSpace=wrap;html=1;fixedSize=1;strokeWidth=2;" vertex="1" parent="1">
          <mxGeometry x="138" y="640" width="120" height="60" as="geometry" />
        </mxCell>
        <mxCell id="0OGlP7ngL8ONjYJPDU6S-17" value="T" style="text;html=1;align=center;verticalAlign=middle;whiteSpace=wrap;rounded=0;" vertex="1" parent="1">
          <mxGeometry x="414" y="720" width="60" height="30" as="geometry" />
        </mxCell>
        <mxCell id="0OGlP7ngL8ONjYJPDU6S-18" value="F" style="text;html=1;align=center;verticalAlign=middle;whiteSpace=wrap;rounded=0;" vertex="1" parent="1">
          <mxGeometry x="294" y="630" width="60" height="30" as="geometry" />
        </mxCell>
        <mxCell id="0OGlP7ngL8ONjYJPDU6S-19" value="end" style="strokeWidth=2;html=1;shape=mxgraph.flowchart.start_1;whiteSpace=wrap;" vertex="1" parent="1">
          <mxGeometry x="364" y="980" width="100" height="60" as="geometry" />
        </mxCell>
        <mxCell id="0OGlP7ngL8ONjYJPDU6S-21" value="" style="shape=waypoint;sketch=0;fillStyle=solid;size=6;pointerEvents=1;points=[];fillColor=none;resizable=0;rotatable=0;perimeter=centerPerimeter;snapToPoint=1;" vertex="1" parent="1">
          <mxGeometry x="404" y="920" width="20" height="20" as="geometry" />
        </mxCell>
        <mxCell id="0OGlP7ngL8ONjYJPDU6S-22" style="edgeStyle=orthogonalEdgeStyle;rounded=0;orthogonalLoop=1;jettySize=auto;html=1;exitX=0.5;exitY=1;exitDx=0;exitDy=0;entryX=0.35;entryY=0.75;entryDx=0;entryDy=0;entryPerimeter=0;" edge="1" parent="1" source="0OGlP7ngL8ONjYJPDU6S-15" target="0OGlP7ngL8ONjYJPDU6S-21">
          <mxGeometry relative="1" as="geometry">
            <Array as="points">
              <mxPoint x="198" y="930" />
            </Array>
          </mxGeometry>
        </mxCell>
      </root>
    </mxGraphModel>
  </diagram>
</mxfile>
